<?xml version="1.0" encoding="utf-8"?>
<!-- Generator: Adobe Illustrator 16.0.0, SVG Export Plug-In . SVG Version: 6.00 Build 0)  -->
<!DOCTYPE svg PUBLIC "-//W3C//DTD SVG 1.1//EN" "http://www.w3.org/Graphics/SVG/1.1/DTD/svg11.dtd">
<svg version="1.1" id="Layer_1" xmlns="http://www.w3.org/2000/svg" xmlns:xlink="http://www.w3.org/1999/xlink" x="0px" y="0px"
	 width="300px" height="300px" viewBox="0 0 300 300" enable-background="new 0 0 300 300" xml:space="preserve">
<path fill="#FF931E" d="M216.151,128.946c4.312-3.238,7.849-1.466,7.849,3.929v88.312c0,5.396-3.536,7.168-7.849,3.929
	l-23.553-17.669c-4.312-3.239-7.849-10.301-7.849-15.697v-29.438c0-5.395,3.536-12.457,7.849-15.695L216.151,128.946z
	 M86.625,83.813C75.787,83.813,67,92.6,67,103.438s8.787,19.625,19.625,19.625c10.838,0,19.625-8.787,19.625-19.625
	S97.463,83.813,86.625,83.813z M145.5,74c-13.55,0-24.531,10.982-24.531,24.531s10.981,24.531,24.531,24.531
	s24.531-10.982,24.531-24.531S159.05,74,145.5,74z M106.25,152.5h68.688v58.875c0,5.425-4.389,9.812-9.812,9.812H76.812
	c-5.424,0-9.812-4.388-9.812-9.812v-68.687c0-5.423,4.389-9.812,9.812-9.812h88.312c5.424,0,9.812,4.389,9.812,9.812H106.25V152.5z
	 M106.25,191.75c0-5.424-4.389-9.812-9.812-9.812s-9.812,4.389-9.812,9.812c0,5.425,4.389,9.812,9.812,9.812
	S106.25,197.175,106.25,191.75z"/>
</svg>
