<?xml version="1.0" encoding="utf-8"?>
<!-- Generator: Adobe Illustrator 16.0.0, SVG Export Plug-In . SVG Version: 6.00 Build 0)  -->
<!DOCTYPE svg PUBLIC "-//W3C//DTD SVG 1.1//EN" "http://www.w3.org/Graphics/SVG/1.1/DTD/svg11.dtd">
<svg version="1.1" id="Layer_1" xmlns="http://www.w3.org/2000/svg" xmlns:xlink="http://www.w3.org/1999/xlink" x="0px" y="0px"
	 width="300px" height="300px" viewBox="0 0 300 300" enable-background="new 0 0 300 300" xml:space="preserve">
<g transform="translate(0,-952.36216)">
	<path fill="#FF931E" d="M195.067,1045.364c-2.076-0.001-3.801,1.601-3.951,3.671c-0.402,4.646-1.15,8.318-1.625,11.651
		c-0.475,3.332-0.77,6.581,0.65,9.816s4.365,5.604,8.467,7.531c1.889,0.888,4.129,1.733,6.717,2.59
		c-4.631,14.145-0.781,23.617,2.92,33.185c0.834,2.184,0.883,2.561,0.883,4.766v14.746l-19.953,20.658
		c-2.166,2.244-2.123,5.791,0.111,7.951c2.244,2.17,5.82,2.096,7.988-0.148l17.764-18.398l0.023-0.025
		c5.326-5.512,5.326-5.533,5.326-15.129v-6.344c0-7.07,0-7.068,2.525-7.33c2.527-0.26,2.527-0.26,4.742,5.807l5.291,14.48v23.781
		c0,3.119,2.49,5.646,5.609,5.646c3.109,0,5.648-2.527,5.648-5.646v-15.762c0-10.061-0.004-10.143-3.139-18.693
		c-0.02-0.057-0.037-0.094-0.057-0.152l-4.014-10.947c-3.686-8.622-10.445-16.521-8.705-26.394l1.584,0.315
		c6.209,1.095,10.674,0.995,14.648-0.971c3.209-1.587,5.414-4.308,7.264-7.48s3.51-6.963,5.748-11.665
		c2.361-4.796-4.91-8.258-7.146-3.402c-2.287,4.806-3.957,8.542-5.438,11.082c-1.482,2.54-2.609,3.714-3.938,4.37
		c-2.652,1.312-8.846,0.868-22.863-2.814c-7.711-2.025-12.947-3.722-16.176-5.239c-3.229-1.518-4.174-2.613-4.586-3.551
		s-0.482-2.571-0.062-5.52c0.418-2.949,1.232-6.957,1.676-12.083c0.234-2.328-1.592-4.351-3.932-4.354h-0.002V1045.364z
		 M56.579,1051.958c-1.069-0.035-2.107,0.365-2.877,1.108c-4.071,3.815-7.134,6.673-9.231,9.442
		c-1.048,1.384-1.918,2.776-2.317,4.551c-0.4,1.775-0.012,4.002,1.054,5.553c2.134,3.101,5.289,4.19,9.711,5.694
		c2.125,0.723,4.618,1.465,7.473,2.271c-5.008,15.251-0.154,25.071,3.755,35.427h0.037v17.314l-19.953,20.658
		c-2.168,2.244-2.124,5.791,0.111,7.951c2.243,2.168,5.82,2.096,7.988-0.148l16.528-17.113c6.583-6.814,6.583-6.814,6.583-16.307
		v-9.777c0-3.744,0.005-3.77,2.657-4.043h0.046c2.329-0.238,2.357-0.223,3.523,2.969l0.025,0.066l6.308,17.271v23.779
		c0,3.121,2.49,5.648,5.61,5.648c3.108,0,5.648-2.527,5.648-5.648v-15.865c0-9.959,0-9.957-3.107-18.461l-4.101-11.227
		c-3.685-8.62-10.479-16.523-8.743-26.393c1.548,0.369,3.017,0.7,4.333,0.948c4.225,0.795,7.532,1.218,10.743-0.391
		c1.605-0.804,2.936-2.251,3.676-3.794c0.74-1.543,1.032-3.136,1.182-4.84c0.301-3.408,0.007-7.432-0.325-12.737
		c-0.101-2.184-1.952-3.872-4.135-3.771c-2.183,0.101-3.872,1.952-3.771,4.135c0.002,0.044,0.005,0.089,0.008,0.133
		c0.339,5.307,0.543,9.234,0.339,11.544c-0.102,1.154-0.312,1.861-0.434,2.115c-0.121,0.254-0.01,0.102-0.086,0.14
		c-0.151,0.075-2.055,0.381-5.731-0.312c-3.676-0.692-8.948-2.107-16.012-4.008c-7.791-2.096-13.658-3.676-17.628-5.025
		c-3.369-1.146-4.902-2.179-5.332-2.448c0.106-0.234,0.162-0.441,0.646-1.08c1.358-1.793,4.289-4.654,8.335-8.446
		c1.616-1.472,1.732-3.975,0.26-5.591c-0.72-0.79-1.728-1.255-2.796-1.29L56.579,1051.958z M76.817,1053.25
		c-5.572,0-10.069,4.495-10.069,10.032c0,5.572,4.498,10.069,10.069,10.069c5.536,0,10.069-4.497,10.069-10.069
		C86.887,1057.745,82.354,1053.25,76.817,1053.25z M132.617,1053.731c-0.757-0.006-1.5,0.205-2.141,0.608
		c-5.838,3.556-9.578,6.25-11.853,9.451c-1.138,1.601-1.962,3.602-1.698,5.76c0.265,2.157,1.585,3.89,3,5.041
		c2.832,2.303,6.48,3.461,11.223,4.814c1.988,0.567,4.2,1.138,6.542,1.723l-15.058,41.323l-1.049,2.879l0,0
		c-2.646,7.502-2.652,7.547-2.715,14.98v18.299c0,3.121,2.54,5.648,5.647,5.648c3.12,0,5.611-2.527,5.611-5.648v-23.779
		l6.974-19.172l0.021-0.061c1.432-3.934,1.451-3.949,3.367-3.449h0.026c2.168,0.566,2.171,0.584,2.171,5.045v11.256
		c0,9.387,0,9.385,5.492,15.07l17.619,18.242c2.168,2.244,5.746,2.318,7.988,0.148c2.234-2.16,2.279-5.707,0.111-7.951
		l-19.952-20.658v-17.574c0.432-4.857,4.358-19.026,7.563-28.226c0.648,0.199,1.41,0.434,2.025,0.618
		c4.232,1.262,7.508,2.399,11.223,1.672c1.857-0.363,3.91-1.628,4.977-3.444s1.307-3.77,1.275-5.882
		c-0.064-4.224-1.311-9.582-3.596-17.473c-0.564-2.111-2.736-3.363-4.846-2.798c-2.111,0.566-3.365,2.736-2.799,4.848
		c0.014,0.051,0.029,0.102,0.045,0.152c2.217,7.658,3.24,12.798,3.281,15.392c0.014,1.021-0.102,1.231-0.145,1.379
		c-0.605,0.048-3.275-0.274-7.154-1.431c-4.035-1.203-9.289-2.951-15.583-4.502c-6.684-1.647-12.459-2.991-16.888-4.255
		c-4.383-1.25-7.458-2.613-8.351-3.316c0.012,0.005,0.024,0.005,0.102-0.105c0.871-1.226,4.031-3.933,9.521-7.277
		c1.883-1.11,2.509-3.536,1.399-5.419c-0.706-1.197-1.986-1.936-3.375-1.947h-0.005L132.617,1053.731z M151.711,1053.879
		c-5.572,0-10.107,4.495-10.107,10.032c0,5.571,4.535,10.069,10.107,10.069c5.534,0,10.03-4.498,10.032-10.069
		C161.743,1058.374,157.247,1053.879,151.711,1053.879z M221.761,1054.25c-5.57,0-10.068,4.495-10.068,10.032
		c0,5.572,4.498,10.069,10.068,10.069c5.537,0,10.07-4.497,10.07-10.069C231.831,1058.745,227.298,1054.25,221.761,1054.25z
		 M87.481,1087.689l3.662,0.98v-0.003L87.481,1087.689z"/>
</g>
</svg>
