<?xml version="1.0" encoding="utf-8"?>
<!-- Generator: Adobe Illustrator 16.0.0, SVG Export Plug-In . SVG Version: 6.00 Build 0)  -->
<!DOCTYPE svg PUBLIC "-//W3C//DTD SVG 1.1//EN" "http://www.w3.org/Graphics/SVG/1.1/DTD/svg11.dtd">
<svg version="1.1" id="Layer_1" xmlns="http://www.w3.org/2000/svg" xmlns:xlink="http://www.w3.org/1999/xlink" x="0px" y="0px"
	 width="300px" height="300px" viewBox="0 0 300 300" enable-background="new 0 0 300 300" xml:space="preserve">
<g>
	<path fill="#FF931E" d="M170.979,186.153l-22.555,22.959c-2.559,2.603-2.521,6.787,0.083,9.344
		c1.285,1.263,2.958,1.895,4.631,1.895c1.711,0,3.419-0.661,4.714-1.976l19.238-19.584l-5.067-8.866
		C171.35,188.746,171.006,187.448,170.979,186.153z"/>
	<path fill="#FF931E" d="M108.69,185.677l7.565,2.167l-6.889,21.629c-1.385,4.348,1.016,8.994,5.364,10.378
		c0.833,0.266,1.678,0.392,2.509,0.392c3.499,0,6.749-2.243,7.867-5.755l9.471-29.734c0.678-2.132,0.468-4.433-0.59-6.405
		c-1.056-1.972-2.854-3.425-5.005-4.04l-26.969-7.728c-0.71,1.642-1.343,3.297-1.859,4.96L108.69,185.677z"/>
	<path fill="#FF931E" d="M217.224,73.057c-2.16,0.369-3.608,2.418-3.241,4.576c0.768,4.48,1.089,8.42,1.089,11.875
		c-0.021,10.634-2.979,16.621-5.672,20.083c-1.359,1.727-2.682,2.821-3.619,3.47c-0.468,0.323-0.84,0.533-1.063,0.653
		c-0.111,0.057-0.184,0.092-0.221,0.109c-2.015,0.825-2.989,3.119-2.179,5.143c0.619,1.549,2.106,2.492,3.682,2.492
		c0.489,0,0.989-0.091,1.472-0.285h-0.001c0.451-0.18,4.35-1.833,8.163-6.686c3.828-4.838,7.388-12.846,7.367-24.979
		c0-3.947-0.367-8.333-1.2-13.211C221.43,74.139,219.382,72.688,217.224,73.057z"/>
	<path fill="#FF931E" d="M150.048,143.922c-2.727,0-5.039-2.132-5.263-4.854c-0.158-1.941,0.759-3.722,2.25-4.764l-16.247,6.499
		l-16.727-9.86c-0.472-0.606-1.031-1.149-1.701-1.593c-3.541-2.348-9.223-3.001-14.515-0.149c3.632,0.535,6.202,1.309,7.169,1.63
		l0.009,0.003l0.064,0.02c1.667,0.581,3.009,1.773,3.778,3.361c0.769,1.589,0.874,3.382,0.293,5.05
		c-0.922,2.656-3.428,4.44-6.239,4.44c-0.738,0-1.469-0.123-2.17-0.368l-0.097-0.032c-0.078-0.024-0.247-0.076-0.478-0.141
		c-0.443-0.124-1.178-0.316-2.153-0.518c-1.734-0.36-4.47-0.788-7.668-0.786c-1.5,0-2.959,0.099-4.376,0.281
		c-3.187,4.802-5.429,9.57-7.333,15.555c-0.662,2.078-1.284,4.299-1.89,6.727c-1.307,7.862,2.325,11.682,6.672,13.93l7.812,12.942
		l-25.958,13.093c-4.075,2.054-5.712,7.021-3.657,11.095c1.453,2.88,4.362,4.543,7.381,4.543c1.25,0,2.52-0.284,3.712-0.887
		l33.92-17.107c2.054-1.033,3.582-2.879,4.219-5.089c0.636-2.21,0.321-4.585-0.866-6.554l-11.271-18.67
		c1.262-4.271,3.265-8.515,5.493-12.521c2.855-5.134,6.078-9.879,8.582-13.794c0.519-0.67,0.973-1.387,1.365-2.13l13.498,7.958
		c0.826,0.484,1.752,0.732,2.682,0.732c0.664,0,1.33-0.125,1.965-0.379l19.514-7.806c-0.443,0.042-0.88,0.088-1.332,0.125
		C150.343,143.915,150.194,143.922,150.048,143.922z"/>
	<path fill="#FF931E" d="M153.231,132.998c-1.079-0.301-2.26-0.269-3.379,0.179l-0.599,0.24c0.122-0.019,0.242-0.039,0.368-0.049
		C150.863,133.266,152.061,133.14,153.231,132.998z"/>
	<ellipse fill="#FF931E" cx="119.536" cy="111.812" rx="14.864" ry="14.864"/>
	<path fill="#FF931E" d="M100.537,141.893c0.25,0.07,0.434,0.127,0.544,0.162c0.049,0.015,0.083,0.026,0.103,0.032h-0.001
		c2.757,0.959,5.769-0.5,6.728-3.257c0.959-2.759-0.5-5.771-3.257-6.728v-0.001c-0.358-0.115-6.149-2.124-14.301-2.137
		c-4.94,0.002-10.784,0.757-16.7,3.287c-5.912,2.516-11.839,6.869-16.667,13.659c-1.697,2.377-1.144,5.679,1.232,7.374
		c0.931,0.664,2.003,0.982,3.065,0.982c1.651,0,3.277-0.771,4.309-2.216c3.743-5.228,7.944-8.236,12.221-10.082
		c4.271-1.831,8.672-2.432,12.54-2.431c3.183-0.001,5.981,0.408,7.937,0.813C99.268,141.551,100.036,141.75,100.537,141.893z"/>
	<path fill="#FF931E" d="M187.558,187.809c-5.533-1.923-11.994-2.767-15.125-3.084c-0.297,1.526-0.065,3.14,0.736,4.546
		l15.859,27.75c1.221,2.134,3.449,3.332,5.742,3.332c1.114,0,2.239-0.282,3.273-0.872c3.167-1.811,4.268-5.846,2.458-9.014
		L187.558,187.809z"/>
	<ellipse fill="#FF931E" cx="180.23" cy="98.997" rx="13.214" ry="13.214"/>
	<path fill="#FF931E" d="M216.24,159.727c-0.882-11.453-7.334-13.25-7.334-13.25l-0.111-0.006
		c-8.952-12.47-3.721-18.314-6.761-26.722c-1.775-4.909-3.587-6.769-5.949-7.121c-5.191-0.773-9.249-0.001-13.288,6.944
		c-0.963,1.465-1.743,3.104-2.321,4.817c2.566-1.547,3.996-2.765,4.376-3.106c0.992-0.957,2.299-1.485,3.678-1.485
		c1.435,0,2.775,0.565,3.777,1.591c0.986,1.007,1.521,2.34,1.508,3.753c-0.018,1.412-0.581,2.733-1.589,3.722
		c-0.054,0.054-3.703,3.718-11.599,7.461c1.215,2.449,3.245,3.908,5.665,4.042c1.649,5.291,2.491,8.614,2.898,10.97
		c-0.271,2.829-0.984,6.288-2.685,9.544c-3.801,7.268-20.154,22.024-20.154,22.024s2.099,0.095,5.104,0.368
		c4.689,0.427,11.597,1.292,16.261,2.936c4.806,1.694,27.487-13.728,28.497-25.097C216.257,160.645,216.274,160.18,216.24,159.727z"
		/>
	<path fill="#FF931E" d="M191.362,122.313c-1.526-1.561-4.024-1.592-5.593-0.077l0,0c-0.227,0.191-11.014,10.384-36.04,12.448
		c-2.182,0.179-3.807,2.094-3.628,4.275c0.171,2.072,1.905,3.64,3.946,3.64c0.109,0,0.219-0.004,0.329-0.014
		c27.914-2.272,40.452-14.179,40.925-14.667C192.866,126.388,192.894,123.877,191.362,122.313z"/>
</g>
</svg>
