<?xml version="1.0" standalone="no"?>
<!DOCTYPE svg PUBLIC "-//W3C//DTD SVG 20010904//EN"
 "http://www.w3.org/TR/2001/REC-SVG-20010904/DTD/svg10.dtd">
<svg version="1.0" xmlns="http://www.w3.org/2000/svg"
 width="1754.000000pt" height="1240.000000pt" viewBox="0 0 1754.000000 1240.000000"
 preserveAspectRatio="xMidYMid meet">
<metadata>
Created by potrace 1.14, written by Peter Selinger 2001-2017
</metadata>
<g transform="translate(0.000000,1240.000000) scale(0.100000,-0.100000)"
fill="#F49F00" stroke="none">
<path d="M7497 9926 c-57 -16 -141 -72 -180 -121 -72 -91 -93 -208 -58 -323
17 -57 32 -83 76 -130 76 -83 151 -116 261 -116 72 0 89 4 147 32 128 63 199
178 200 322 0 61 -5 86 -28 138 -72 160 -249 243 -418 198z"/>
<path d="M3825 8739 c-335 -654 -611 -1194 -613 -1200 -2 -5 75 -9 196 -9
l200 0 75 143 74 142 491 3 491 2 36 -117 c43 -140 122 -395 136 -440 l11 -33
194 0 c107 0 194 3 194 8 0 15 -865 2692 -870 2692 -3 0 -279 -536 -615 -1191z
m669 -124 c70 -231 129 -428 132 -437 5 -17 -16 -18 -345 -18 -193 0 -351 2
-351 5 0 11 430 878 434 874 2 -2 61 -193 130 -424z"/>
<path d="M1080 9881 c0 -5 -70 -593 -155 -1305 -85 -712 -155 -1307 -155
-1321 l0 -25 179 0 179 0 6 28 c3 15 51 401 106 857 55 457 104 843 108 859 7
27 50 -26 767 -941 561 -717 762 -967 767 -954 6 13 328 2091 328 2114 0 4
-84 7 -187 7 l-188 0 -110 -626 -111 -627 -757 966 c-417 532 -762 969 -767
972 -6 3 -10 2 -10 -4z"/>
<path d="M6035 9728 c-3 -18 -44 -350 -92 -738 -81 -661 -86 -718 -87 -905
l-1 -200 33 -94 c42 -121 88 -196 175 -288 118 -125 251 -200 433 -245 72 -18
119 -22 244 -22 91 -1 180 5 215 12 337 73 564 265 676 574 48 130 74 256 134
631 30 192 55 353 55 358 0 6 -73 8 -187 7 l-187 -3 -57 -335 c-65 -388 -83
-461 -145 -588 -76 -154 -188 -246 -344 -283 -78 -18 -251 -16 -329 4 -132 35
-242 123 -298 239 -76 157 -74 225 37 1114 50 395 93 736 96 757 l6 37 -186 0
-185 0 -6 -32z"/>
<path d="M9370 9754 c-326 -42 -570 -159 -770 -370 -129 -136 -213 -281 -280
-483 -53 -161 -73 -285 -73 -461 0 -278 66 -506 204 -713 54 -80 227 -252 304
-302 181 -119 379 -180 618 -191 461 -23 811 162 1037 546 71 121 136 324 165
516 8 54 15 105 15 112 0 10 -105 12 -507 10 l-508 -3 -17 -130 c-9 -71 -17
-147 -17 -167 l-1 -38 310 0 c171 0 310 -2 310 -5 0 -2 -11 -34 -24 -69 -66
-174 -208 -307 -398 -370 -197 -66 -470 -52 -655 34 -171 79 -317 226 -394
396 -83 183 -100 453 -43 679 8 33 37 106 64 162 173 356 506 526 950 483 63
-6 142 -18 175 -26 75 -20 177 -72 234 -122 l45 -39 110 125 c61 68 112 129
113 135 1 7 -27 36 -62 66 -204 172 -350 220 -685 226 -102 2 -201 1 -220 -1z"/>
<path d="M11216 9718 c-3 -24 -71 -578 -151 -1233 -80 -654 -147 -1205 -150
-1222 l-6 -33 186 0 c102 0 185 3 185 6 0 11 140 1146 146 1187 l6 37 524 0
525 0 -6 -32 c-7 -45 -145 -1166 -145 -1184 0 -12 30 -14 182 -12 l183 3 113
919 c62 505 112 920 110 921 -2 2 -85 7 -184 11 l-182 7 -6 -29 c-3 -16 -13
-95 -22 -176 l-17 -148 -513 0 c-513 0 -514 0 -514 21 0 11 25 230 55 486 30
256 55 477 55 490 l0 23 -184 0 -184 0 -6 -42z"/>
<path d="M13340 9752 c0 -5 -9 -80 -20 -168 -11 -87 -20 -165 -20 -171 0 -10
66 -13 295 -13 l295 0 0 -22 c-1 -13 -58 -499 -128 -1081 -71 -582 -126 -1060
-123 -1062 2 -3 84 -5 182 -5 l177 0 6 38 c4 20 62 494 131 1052 69 558 127
1030 130 1048 l6 32 288 0 288 0 17 158 c10 86 20 167 23 180 l5 22 -776 0
c-427 0 -776 -4 -776 -8z"/>
<path d="M16404 9478 c-103 -156 -249 -379 -326 -495 -77 -117 -144 -213 -148
-213 -4 0 -67 132 -139 293 -73 160 -136 295 -140 300 -4 4 -98 6 -208 5
l-200 -3 233 -484 c129 -266 234 -491 234 -500 0 -9 -94 -520 -209 -1136 -115
-616 -207 -1123 -204 -1127 4 -8 373 -11 373 -4 0 16 411 2216 418 2236 5 14
215 333 468 709 252 377 461 689 462 693 2 4 -93 8 -212 8 l-216 0 -186 -282z"/>
<path d="M4462 6769 c-15 -35 -163 -380 -327 -767 l-300 -702 -21 42 c-12 24
-149 321 -304 661 l-283 617 -304 0 c-172 0 -303 -4 -301 -9 20 -54 1212
-2490 1217 -2487 3 3 150 336 326 740 176 405 323 736 326 736 3 0 150 -333
325 -740 175 -407 321 -740 324 -740 5 0 1161 2368 1202 2461 l17 39 -302 0
-303 0 -299 -660 c-184 -408 -302 -655 -306 -647 -4 7 -152 350 -329 762 -177
413 -323 752 -325 754 -3 2 -17 -25 -33 -60z"/>
<path d="M1515 6681 c-274 -44 -486 -216 -572 -464 -20 -57 -26 -98 -30 -197
-6 -143 8 -224 56 -318 69 -137 175 -217 499 -375 241 -117 284 -142 345 -203
59 -59 81 -109 81 -179 -1 -80 -17 -125 -61 -169 -50 -50 -121 -70 -227 -64
-136 8 -222 69 -316 226 -23 40 -48 71 -54 69 -50 -21 -433 -201 -440 -208
-22 -21 99 -224 192 -322 111 -116 238 -189 400 -229 121 -31 340 -30 457 1
229 60 434 221 529 416 48 98 66 172 73 301 10 187 -35 332 -137 446 -88 99
-277 214 -542 332 -270 119 -348 185 -348 292 0 94 71 159 175 159 96 0 173
-58 250 -190 10 -16 32 -7 233 99 122 65 222 120 222 123 0 16 -88 155 -132
210 -89 110 -215 192 -350 229 -64 18 -234 26 -303 15z"/>
<path d="M8567 6675 c-156 -30 -323 -114 -438 -222 l-49 -46 0 107 0 106 -270
0 -270 0 0 -1165 0 -1165 270 0 270 0 0 608 c0 340 5 660 11 727 29 333 110
483 294 545 121 40 297 36 406 -11 64 -28 131 -101 158 -172 49 -131 51 -178
51 -963 l0 -734 275 0 275 0 0 758 c0 478 -4 799 -11 868 -35 350 -163 561
-418 689 -137 68 -391 101 -554 70z"/>
<path d="M10877 6674 c-185 -28 -354 -105 -494 -223 -400 -339 -539 -1017
-319 -1557 71 -174 215 -362 366 -476 270 -205 682 -254 1001 -118 89 38 217
121 292 189 l57 53 0 -938 c0 -892 -1 -944 -20 -1034 -37 -182 -129 -320 -258
-388 -176 -93 -423 -94 -608 -3 -139 69 -229 184 -272 348 l-18 68 -269 0
-270 0 4 -45 c4 -61 44 -214 74 -289 95 -235 301 -444 532 -540 249 -104 569
-127 844 -61 233 56 440 190 586 380 91 118 159 275 191 444 23 122 32 796 33
2589 l1 1547 -275 0 -275 0 0 -123 0 -124 -46 44 c-227 218 -529 308 -857 257z
m408 -489 c121 -22 213 -72 311 -169 67 -67 89 -97 127 -176 71 -147 97 -318
77 -500 -22 -199 -84 -337 -209 -460 -122 -121 -247 -170 -431 -170 -190 0
-323 52 -442 172 -74 75 -145 203 -173 313 -35 133 -35 369 -1 506 9 35 37
106 62 158 127 258 380 379 679 326z"/>
<path d="M6720 5455 l0 -1165 270 0 270 0 0 1165 0 1165 -270 0 -270 0 0
-1165z"/>
</g>
</svg>
